<svg width="68" height="64" viewBox="0 0 68 64" fill="none" xmlns="http://www.w3.org/2000/svg">
<g opacity="0.6">
<path d="M65.1666 50.6667C65.1666 52.0812 64.5696 53.4377 63.5069 54.4379C62.4442 55.4381 61.0029 56 59.5 56H8.49998C6.99709 56 5.55575 55.4381 4.49304 54.4379C3.43034 53.4377 2.83331 52.0812 2.83331 50.6667V21.3333C2.83331 19.9188 3.43034 18.5623 4.49304 17.5621C5.55575 16.5619 6.99709 16 8.49998 16H19.8333L25.5 8H42.5L48.1666 16H59.5C61.0029 16 62.4442 16.5619 63.5069 17.5621C64.5696 18.5623 65.1666 19.9188 65.1666 21.3333V50.6667Z" stroke="#1E1E1E" stroke-width="4" stroke-linecap="round" stroke-linejoin="round"/>
<path d="M34 45.3333C40.2592 45.3333 45.3333 40.5577 45.3333 34.6667C45.3333 28.7756 40.2592 24 34 24C27.7408 24 22.6666 28.7756 22.6666 34.6667C22.6666 40.5577 27.7408 45.3333 34 45.3333Z" stroke="#1E1E1E" stroke-width="4" stroke-linecap="round" stroke-linejoin="round"/>
</g>
</svg>
